<?xml version="1.0" encoding="utf-8"?>
<!-- Generator: Adobe Illustrator 16.0.0, SVG Export Plug-In . SVG Version: 6.00 Build 0)  -->
<!DOCTYPE svg PUBLIC "-//W3C//DTD SVG 1.1//EN" "http://www.w3.org/Graphics/SVG/1.1/DTD/svg11.dtd">
<svg version="1.1" id="Layer_1" xmlns="http://www.w3.org/2000/svg" xmlns:xlink="http://www.w3.org/1999/xlink" x="0px" y="0px"
	 width="261.411px" height="337px" viewBox="0 0 261.411 337" enable-background="new 0 0 261.411 337" xml:space="preserve">
<path fill="#1D1D1B" d="M114.794,163.988H92.667v-2.811c0.987-0.494,1.949-0.913,2.886-1.258s1.949-0.641,3.034-0.888v-30.923
	l0.37-8.655h-0.592l-2.442,7.916l-14.283,36.62h-3.404l-14.209-36.324l-2.664-8.655h-0.666l0.074,9.395v30.332
	c0.938,0.197,1.974,0.518,3.108,0.961s2.195,0.937,3.182,1.48v2.811H49.002v-2.811c0.79-0.395,1.751-0.863,2.886-1.406
	c1.185-0.542,2.294-0.913,3.331-1.11V117.16c-0.987-0.197-2.047-0.469-3.182-0.814c-1.085-0.345-2.048-0.789-2.886-1.332v-2.811
	h20.056l11.323,30.109l2.146,7.102h0.074l2.22-7.25l11.545-29.961h18.354v2.811c-0.839,0.493-1.751,0.937-2.738,1.332
	c-0.938,0.345-1.9,0.617-2.886,0.814v41.946c1.036,0.197,2.022,0.493,2.96,0.888c0.987,0.395,1.85,0.789,2.59,1.184V163.988z"/>
<path fill="#1D1D1B" d="M134.457,158.958c1.036,0,1.924-0.197,2.664-0.592s1.357-0.863,1.851-1.405
	c0.542-0.543,0.938-1.135,1.184-1.776c0.296-0.641,0.519-1.208,0.666-1.701v-7.398c-2.318,0.049-4.218,0.197-5.698,0.444
	s-2.64,0.666-3.479,1.257c-0.838,0.543-1.431,1.258-1.776,2.146c-0.296,0.838-0.444,1.874-0.444,3.107
	c0,1.874,0.444,3.329,1.332,4.365C131.645,158.44,132.878,158.958,134.457,158.958z M151.108,153.261c0,1.085,0,2.022,0,2.811
	c0.05,0.79,0.123,1.628,0.222,2.516l5.106,0.74v2.589c-0.592,0.296-1.405,0.592-2.441,0.888c-0.987,0.296-2.048,0.592-3.183,0.888
	c-1.086,0.247-2.171,0.444-3.256,0.592c-1.086,0.197-2.048,0.345-2.887,0.444h-2.517c-0.493-1.134-0.789-2.269-0.888-3.403
	c-0.099-1.135-0.173-2.516-0.222-4.143h-0.37c-0.247,0.986-0.666,1.948-1.259,2.885c-0.592,0.888-1.356,1.702-2.294,2.441
	c-0.888,0.69-1.948,1.257-3.182,1.701c-1.234,0.444-2.615,0.666-4.145,0.666c-1.628,0-3.133-0.247-4.514-0.74
	s-2.59-1.184-3.626-2.071s-1.85-1.948-2.442-3.181c-0.592-1.282-0.888-2.713-0.888-4.291c0-2.219,0.419-4.044,1.258-5.474
	c0.839-1.431,2.146-2.589,3.922-3.477c1.826-0.937,4.145-1.627,6.957-2.072c2.862-0.444,6.316-0.764,10.361-0.961
	c0.395-4.242,0.223-7.349-0.518-9.321s-2.344-2.959-4.811-2.959c-1.529,0-2.936,0.247-4.219,0.74l-3.478,8.878h-3.256
	c-0.395-0.592-0.789-1.258-1.184-1.998c-0.345-0.789-0.69-1.603-1.036-2.441c-0.296-0.888-0.567-1.775-0.814-2.663
	c-0.197-0.888-0.345-1.751-0.444-2.589c1.875-1.282,4.292-2.293,7.252-3.033c2.96-0.74,6.093-1.11,9.398-1.11
	c2.813,0,5.106,0.321,6.883,0.962c1.776,0.592,3.158,1.43,4.145,2.515c1.036,1.036,1.752,2.269,2.146,3.699s0.592,2.959,0.592,4.586
	c0,2.959-0.074,5.647-0.222,8.064C151.158,148.305,151.108,150.746,151.108,153.261z"/>
<path fill="#E1504B" d="M77.686,203.662c-0.729-0.158-1.412-0.332-2.046-0.522s-1.237-0.412-1.808-0.666l0.333-1.379h10.562
	l-0.285,1.379c-0.54,0.254-1.11,0.476-1.713,0.666c-0.571,0.19-1.221,0.364-1.951,0.522l-17.222,30.723l-2.617,0.57l-5.519-31.293
	c-0.729-0.158-1.379-0.332-1.951-0.522c-0.539-0.223-1.015-0.444-1.427-0.666l0.286-1.379H64.84l-0.285,1.379
	c-0.571,0.254-1.221,0.476-1.951,0.666s-1.459,0.364-2.188,0.522l3.473,21.734l0.238,3.805h0.095l1.76-3.899L77.686,203.662z"/>
<path fill="#E1504B" d="M86.765,202.379c0-0.825,0.254-1.475,0.761-1.95s1.173-0.714,1.998-0.714c0.888,0,1.586,0.238,2.093,0.714
	c0.508,0.476,0.761,1.125,0.761,1.95c0,0.792-0.253,1.41-0.761,1.854c-0.507,0.443-1.205,0.666-2.093,0.666
	c-0.825,0-1.491-0.223-1.998-0.666C87.019,203.789,86.765,203.171,86.765,202.379z M82.911,212.937v-1.189
	c0.476-0.19,1.015-0.38,1.618-0.57c0.603-0.222,1.221-0.412,1.855-0.571c0.634-0.158,1.237-0.285,1.808-0.38
	c0.571-0.127,1.079-0.19,1.522-0.19l0.856,0.57l-4.472,21.116h3.521v1.236c-0.666,0.508-1.443,0.92-2.331,1.236
	c-0.888,0.317-1.76,0.476-2.617,0.476c-0.92,0-1.586-0.206-1.998-0.618c-0.381-0.412-0.571-0.888-0.571-1.427
	c0-0.634,0.048-1.252,0.143-1.854s0.222-1.269,0.38-1.997l3.331-15.361L82.911,212.937z"/>
<path fill="#E1504B" d="M106.43,212.08c-1.364,0.032-2.632,0.682-3.806,1.95c-1.173,1.236-2.172,3.376-2.997,6.42
	c3.077-0.095,5.471-0.618,7.184-1.569c1.712-0.982,2.569-2.33,2.569-4.042c0-0.666-0.206-1.284-0.619-1.855
	C108.38,212.413,107.604,212.112,106.43,212.08z M111.425,230.152c-0.286,0.603-0.698,1.188-1.237,1.76
	c-0.54,0.57-1.174,1.094-1.903,1.569c-0.729,0.443-1.554,0.792-2.474,1.046c-0.92,0.285-1.903,0.428-2.95,0.428
	c-2.633,0-4.663-0.744-6.09-2.234c-1.396-1.522-2.093-3.615-2.093-6.278c0-2.251,0.317-4.375,0.951-6.372
	c0.635-1.998,1.522-3.741,2.665-5.231c1.142-1.49,2.521-2.663,4.139-3.52c1.649-0.856,3.473-1.284,5.471-1.284
	c1.522,0,2.823,0.396,3.901,1.189c1.11,0.761,1.666,1.902,1.666,3.424c0,2.251-1.126,4.026-3.378,5.326
	c-2.22,1.3-5.82,2.141-10.8,2.521c-0.127,0.539-0.222,1.063-0.286,1.569c-0.032,0.508-0.047,0.999-0.047,1.475
	c0,1.902,0.476,3.456,1.427,4.661c0.983,1.204,2.411,1.807,4.282,1.807c0.603,0,1.189-0.095,1.76-0.285
	c0.603-0.19,1.158-0.428,1.665-0.714c0.54-0.285,1.015-0.586,1.427-0.903c0.444-0.316,0.825-0.603,1.142-0.855L111.425,230.152z"/>
<polygon fill="#E1504B" points="57.064,0 0,0 0,69.435 5.709,69.435 5.709,5.707 69.381,5.707 69.381,0 "/>
<polygon fill="#E1504B" points="204.32,337 261.411,337 261.411,267.592 255.702,267.592 255.702,331.24 192.083,331.24 
	192.083,336.947 "/>
<polygon fill="#E1504B" points="261.411,57.096 261.411,0 192.083,0 192.083,5.707 255.755,5.707 255.755,69.435 261.411,69.435 "/>
<polygon fill="#E1504B" points="0,279.904 0,337 69.381,337 69.381,331.293 5.656,331.293 5.656,267.592 0,267.592 "/>
<path fill="#E1504B" d="M210.638,36.17c-2.943-0.005-5.823,0.863-8.274,2.494c-2.45,1.631-4.361,3.953-5.492,6.67
	c-1.13,2.717-1.429,5.709-0.857,8.596s1.986,5.54,4.066,7.623s4.731,3.502,7.619,4.079c2.887,0.576,5.88,0.283,8.601-0.842
	c2.721-1.125,5.047-3.031,6.683-5.478c1.637-2.447,2.51-5.324,2.51-8.267c0-3.94-1.564-7.72-4.349-10.509
	C218.358,37.748,214.58,36.177,210.638,36.17z"/>
</svg>
