<svg width="16" height="16" viewBox="0 0 16 16" fill="none" xmlns="http://www.w3.org/2000/svg">
<path d="M3 1H1C0.446875 1 0 1.44687 0 2V3H4V2C4 1.44687 3.55312 1 3 1Z" fill="white" fill-opacity="0.3"/>
<path d="M0 14C0 14.5531 0.446875 15 1 15H3C3.55312 15 4 14.5531 4 14V13H0V14Z" fill="white" fill-opacity="0.3"/>
<path d="M4 4H0V12H4V4Z" fill="white" fill-opacity="0.3"/>
<path d="M8.00001 1H6.00001C5.44688 1 5.00001 1.44687 5.00001 2V3H9.00001V2C9.00001 1.44687 8.55313 1 8.00001 1Z" fill="white" fill-opacity="0.3"/>
<path d="M5.00001 14C5.00001 14.5531 5.44688 15 6.00001 15H8.00001C8.55313 15 9.00001 14.5531 9.00001 14V13H5.00001V14Z" fill="white" fill-opacity="0.3"/>
<path d="M9.00001 4H5.00001V12H9.00001V4Z" fill="white" fill-opacity="0.3"/>
<path d="M11.2212 1.10002L10.2525 1.35315C9.71809 1.49377 9.39621 2.03752 9.53684 2.5719L9.78996 3.54065L12.6931 2.7844L12.44 1.81565C12.2993 1.28127 11.7556 0.959396 11.2212 1.10002Z" fill="white" fill-opacity="0.3"/>
<path d="M12.9456 3.75117L10.0422 4.50657L12.0566 12.249L14.96 11.4936L12.9456 3.75117Z" fill="white" fill-opacity="0.3"/>
<path d="M12.5586 14.1844C12.6993 14.7188 13.243 15.0407 13.7774 14.9001L14.7461 14.6469C15.2805 14.5063 15.6024 13.9626 15.4618 13.4282L15.2086 12.4594L12.3055 13.2157L12.5586 14.1844Z" fill="white" fill-opacity="0.3"/>
</svg>
