<svg width="56" height="56" viewBox="0 0 56 56" fill="none" xmlns="http://www.w3.org/2000/svg">
<circle opacity="0.1" cx="28" cy="28" r="28" fill="#E1504B"/>
<path fill-rule="evenodd" clip-rule="evenodd" d="M34.7501 20.7501C34.3028 20.3028 33.5775 20.3028 33.1301 20.7501L28.0002 25.88L22.8701 20.7499C22.4227 20.3026 21.6974 20.3026 21.2501 20.7499C20.8027 21.1973 20.8027 21.9226 21.2501 22.3699L26.3802 27.5L21.2501 32.6301C20.8028 33.0775 20.8028 33.8028 21.2501 34.2501C21.6975 34.6975 22.4228 34.6975 22.8701 34.2501L28.0002 29.12L33.1301 34.2499C33.5774 34.6973 34.3027 34.6973 34.7501 34.2499C35.1974 33.8026 35.1974 33.0773 34.7501 32.6299L29.6202 27.5L34.7501 22.3701C35.1975 21.9228 35.1975 21.1975 34.7501 20.7501Z" fill="#E1504B"/>
</svg>
