<svg width="17" height="16" viewBox="0 0 17 16" fill="none" xmlns="http://www.w3.org/2000/svg">
<path d="M8.5 12C8.23145 12 7.97461 11.8937 7.78418 11.7031L5.54688 9.46564C5.14941 9.0719 5.14941 8.43127 5.54688 8.03436C5.94043 7.63751 6.58105 7.63751 6.97754 8.03436L7.5 8.55627V1C7.5 0.446899 7.94629 0 8.5 0C9.05273 0 9.5 0.446899 9.5 1V8.55627L10.0215 8.03436C10.2188 7.83752 10.4775 7.73749 10.7373 7.73749C10.9971 7.73749 11.2559 7.83752 11.4531 8.03436C11.8496 8.4281 11.8496 9.06873 11.4531 9.46564L9.21582 11.7031C9.02441 11.8937 8.76855 12 8.5 12Z" fill="white"/>
<path d="M12.5 12C12.5 11.4469 12.9473 11 13.5 11C14.0527 11 14.5 11.4469 14.5 12V16H2.5V12C2.5 11.4469 2.94727 11 3.5 11C4.05273 11 4.5 11.4469 4.5 12V14H12.5V12Z" fill="white"/>
</svg>
