<svg width="18" height="30" viewBox="0 0 18 30" fill="none" xmlns="http://www.w3.org/2000/svg">
<path fill-rule="evenodd" clip-rule="evenodd" d="M3.25 6.5C5.0448 6.5 6.5 5.04491 6.5 3.25C6.5 1.45509 5.0448 0 3.25 0C1.4552 0 0 1.45509 0 3.25C0 5.04491 1.4552 6.5 3.25 6.5ZM6.5 14.9746C6.5 16.7695 5.0448 18.2246 3.25 18.2246C1.4552 18.2246 0 16.7695 0 14.9746C0 13.1797 1.4552 11.7246 3.25 11.7246C5.0448 11.7246 6.5 13.1797 6.5 14.9746ZM3.25 30C5.0448 30 6.5 28.5449 6.5 26.75C6.5 24.9551 5.0448 23.5 3.25 23.5C1.4552 23.5 0 24.9551 0 26.75C0 28.5449 1.4552 30 3.25 30ZM14.75 6.5C16.5448 6.5 18 5.04491 18 3.25C18 1.45509 16.5448 0 14.75 0C12.9552 0 11.5 1.45509 11.5 3.25C11.5 5.04491 12.9552 6.5 14.75 6.5ZM18 14.9746C18 16.7695 16.5448 18.2246 14.75 18.2246C12.9552 18.2246 11.5 16.7695 11.5 14.9746C11.5 13.1797 12.9552 11.7246 14.75 11.7246C16.5448 11.7246 18 13.1797 18 14.9746ZM14.75 30C16.5448 30 18 28.5449 18 26.75C18 24.9551 16.5448 23.5 14.75 23.5C12.9552 23.5 11.5 24.9551 11.5 26.75C11.5 28.5449 12.9552 30 14.75 30Z" fill="#14473C"/>
</svg>
