<svg width="12" height="16" viewBox="0 0 12 16" fill="none" xmlns="http://www.w3.org/2000/svg">
<path fill-rule="evenodd" clip-rule="evenodd" d="M10.9981 0C11.5508 0 11.9981 0.446777 11.9981 0.999817V10.9979C11.9981 11.5508 11.5508 11.9977 10.9981 12.0008H2.4463C0.593764 12.0757 0.462905 14.9221 2.50001 14.994L11.4981 15.0002C12.1504 15.0408 12.1729 15.9562 11.4981 16C11.4981 16 2.46486 15.9938 2.4463 15.9906C-0.0283062 15.8063 1.41804e-05 13.5005 1.41804e-05 13.5005V2.99939C1.41804e-05 1.34351 1.34376 0 2.99904 0H10.9981ZM3.00294 1.99963V9.99805H4V10H9V9.99805H10.002V1.99963H3.00294ZM10.4981 13.9973H2.49318C1.79982 13.9629 1.86525 13.0068 2.49318 12.9974H10.4981C11.1035 13.0068 11.2197 13.9442 10.4981 13.9973Z" fill="white" fill-opacity="0.3"/>
<path d="M5.564 5.662C5.564 4.924 5.924 4.522 6.488 4.51C6.84277 4.50573 7.05443 4.61107 7.17286 4.79567C7.25865 4.92939 7.39504 5.04133 7.55276 5.02221C7.725 5.00133 7.85078 4.83888 7.78645 4.67775C7.62431 4.27162 7.25101 4 6.488 4C5.552 4 5 4.6 5 5.662C5 6.724 5.552 7.324 6.488 7.324C7.25101 7.324 7.62431 7.05238 7.78645 6.64625C7.85078 6.48512 7.725 6.32267 7.55276 6.30179C7.39504 6.28267 7.25865 6.39461 7.17286 6.52833C7.05443 6.71293 6.84277 6.81827 6.488 6.814C5.924 6.802 5.564 6.4 5.564 5.662Z" fill="white" fill-opacity="0.3"/>
</svg>
