<svg width="84" height="43" viewBox="0 0 84 43" fill="none" xmlns="http://www.w3.org/2000/svg">
<path fill-rule="evenodd" clip-rule="evenodd" d="M76.4356 3.16282C77.5535 2.04754 78.7877 0.984406 80.1456 0H83.6485C81.4198 1.30706 79.5043 2.83023 77.8674 4.46341C72.6468 9.67195 70.1962 16.0656 69.547 20.3292C68.6006 26.5442 64.5994 32.1134 58.0836 35.3683C51.5816 38.6163 42.6764 39.5161 31.9199 36.6433C15.6717 32.3039 5.20957 37.5023 1.06016e-07 42.5296L0 39.9449C6.08969 34.885 16.8964 30.5677 32.591 34.7593C42.9947 37.5378 51.3333 36.5972 57.2331 33.6501C63.1191 30.7098 66.6775 25.729 67.5231 20.1759C68.2256 15.5618 70.8436 8.74203 76.4356 3.16282Z" fill="white"/>
</svg>
