<svg width="262" height="337" viewBox="0 0 262 337" fill="none" xmlns="http://www.w3.org/2000/svg">
<path d="M114.794 163.988H92.6665V161.177C93.6532 160.684 94.6153 160.265 95.5527 159.919C96.4902 159.574 97.5016 159.278 98.587 159.032V128.108L98.957 119.453H98.365L95.9228 127.369L81.6395 163.988H78.2352L64.026 127.665L61.3617 119.009H60.6957L60.7697 128.404V158.736C61.7071 158.933 62.7432 159.254 63.878 159.697C65.0127 160.141 66.0735 160.635 67.0602 161.177V163.988H49.0026V161.177C49.7921 160.782 50.7541 160.314 51.8889 159.771C53.073 159.229 54.1831 158.859 55.2192 158.662V117.16C54.2324 116.962 53.1717 116.691 52.0369 116.346C50.9515 116.001 49.9894 115.557 49.1507 115.014V112.203H69.2064L80.5294 142.312L82.6756 149.414H82.7496L84.9698 142.164L96.5148 112.203H114.868V115.014C114.03 115.507 113.117 115.951 112.13 116.346C111.193 116.691 110.231 116.962 109.244 117.16V159.106C110.28 159.303 111.267 159.599 112.204 159.993C113.191 160.388 114.054 160.782 114.794 161.177V163.988Z" fill="white"/>
<path d="M151.108 153.261C151.108 154.346 151.108 155.283 151.108 156.072C151.158 156.862 151.232 157.7 151.331 158.588L156.437 159.328V161.917C155.845 162.213 155.031 162.509 153.995 162.805C153.008 163.1 151.947 163.396 150.812 163.692C149.727 163.939 148.642 164.136 147.556 164.284C146.471 164.481 145.509 164.629 144.67 164.728H142.154C141.66 163.594 141.364 162.459 141.266 161.325C141.167 160.191 141.093 158.81 141.044 157.182H140.674C140.427 158.169 140.008 159.13 139.415 160.067C138.823 160.955 138.059 161.769 137.121 162.509C136.233 163.199 135.172 163.766 133.939 164.21C132.706 164.654 131.324 164.876 129.795 164.876C128.166 164.876 126.662 164.629 125.28 164.136C123.899 163.643 122.69 162.953 121.654 162.065C120.618 161.177 119.804 160.117 119.212 158.884C118.62 157.601 118.324 156.171 118.324 154.593C118.324 152.374 118.743 150.549 119.582 149.118C120.42 147.688 121.728 146.529 123.504 145.641C125.33 144.704 127.648 144.014 130.461 143.57C133.322 143.126 136.776 142.806 140.822 142.608C141.216 138.367 141.044 135.26 140.304 133.287C139.563 131.314 137.96 130.328 135.493 130.328C133.964 130.328 132.558 130.574 131.275 131.068L127.796 139.945H124.54C124.145 139.353 123.751 138.687 123.356 137.948C123.011 137.159 122.665 136.345 122.32 135.506C122.024 134.619 121.753 133.731 121.506 132.843C121.309 131.955 121.161 131.092 121.062 130.254C122.937 128.972 125.354 127.961 128.314 127.221C131.275 126.481 134.408 126.111 137.713 126.111C140.526 126.111 142.82 126.432 144.596 127.073C146.372 127.665 147.754 128.503 148.74 129.588C149.776 130.624 150.492 131.857 150.886 133.287C151.281 134.717 151.479 136.246 151.479 137.874C151.479 140.833 151.405 143.521 151.257 145.937C151.158 148.305 151.108 150.746 151.108 153.261ZM134.457 158.958C135.493 158.958 136.381 158.76 137.121 158.366C137.861 157.971 138.478 157.503 138.971 156.96C139.514 156.418 139.909 155.826 140.156 155.185C140.452 154.544 140.674 153.976 140.822 153.483V146.085C138.503 146.135 136.603 146.283 135.123 146.529C133.643 146.776 132.484 147.195 131.645 147.787C130.806 148.329 130.214 149.044 129.869 149.932C129.573 150.771 129.425 151.806 129.425 153.039C129.425 154.913 129.869 156.368 130.757 157.404C131.645 158.44 132.878 158.958 134.457 158.958Z" fill="white"/>
<path d="M77.6859 203.663C76.9564 203.504 76.2745 203.33 75.6402 203.139C75.0058 202.949 74.4032 202.727 73.8323 202.474L74.1653 201.094H84.7271L84.4417 202.474C83.9025 202.727 83.3316 202.949 82.7289 203.139C82.158 203.33 81.5078 203.504 80.7784 203.663L63.556 234.385L60.9393 234.956L55.4205 203.663C54.6911 203.504 54.0409 203.33 53.4699 203.139C52.9308 202.917 52.455 202.696 52.0427 202.474L52.3281 201.094H64.8405L64.5551 202.474C63.9842 202.727 63.334 202.949 62.6045 203.139C61.875 203.33 61.1455 203.504 60.416 203.663L63.889 225.396L64.1269 229.201H64.222L65.9823 225.301L77.6859 203.663Z" fill="#E1504B"/>
<path d="M82.9111 212.936V211.747C83.3868 211.557 83.926 211.367 84.5286 211.177C85.1313 210.955 85.7497 210.764 86.3841 210.606C87.0184 210.447 87.6211 210.321 88.192 210.225C88.7629 210.099 89.2703 210.035 89.7144 210.035L90.5707 210.606L86.0986 231.722H89.6192V232.958C88.9532 233.465 88.1761 233.878 87.288 234.195C86.4 234.512 85.5277 234.67 84.6714 234.67C83.7516 234.67 83.0855 234.464 82.6732 234.052C82.2926 233.64 82.1023 233.164 82.1023 232.625C82.1023 231.991 82.1499 231.373 82.245 230.77C82.3402 230.168 82.467 229.502 82.6256 228.773L85.9559 213.412L82.9111 212.936ZM86.7647 202.378C86.7647 201.554 87.0184 200.904 87.5259 200.429C88.0334 199.953 88.6994 199.715 89.5241 199.715C90.4122 199.715 91.1099 199.953 91.6174 200.429C92.1249 200.904 92.3786 201.554 92.3786 202.378C92.3786 203.171 92.1249 203.789 91.6174 204.233C91.1099 204.677 90.4122 204.899 89.5241 204.899C88.6994 204.899 88.0334 204.677 87.5259 204.233C87.0184 203.789 86.7647 203.171 86.7647 202.378Z" fill="#E1504B"/>
<path d="M111.425 230.152C111.14 230.755 110.727 231.341 110.188 231.912C109.649 232.483 109.015 233.006 108.285 233.481C107.556 233.925 106.731 234.274 105.811 234.528C104.892 234.813 103.908 234.956 102.862 234.956C100.229 234.956 98.1992 234.21 96.7719 232.72C95.3764 231.198 94.6786 229.106 94.6786 226.443C94.6786 224.192 94.9958 222.067 95.6301 220.07C96.2645 218.073 97.1525 216.329 98.2943 214.839C99.4362 213.348 100.816 212.175 102.433 211.319C104.083 210.463 105.906 210.035 107.905 210.035C109.427 210.035 110.727 210.432 111.806 211.224C112.916 211.985 113.471 213.127 113.471 214.648C113.471 216.899 112.345 218.675 110.093 219.975C107.873 221.275 104.273 222.115 99.2934 222.495C99.1666 223.034 99.0714 223.558 99.008 224.065C98.9763 224.572 98.9604 225.064 98.9604 225.539C98.9604 227.441 99.4362 228.995 100.388 230.2C101.371 231.405 102.798 232.007 104.669 232.007C105.272 232.007 105.859 231.912 106.43 231.722C107.032 231.531 107.587 231.294 108.095 231.008C108.634 230.723 109.11 230.422 109.522 230.105C109.966 229.788 110.347 229.502 110.664 229.249L111.425 230.152ZM106.43 212.08C105.066 212.112 103.797 212.762 102.624 214.03C101.45 215.267 100.451 217.407 99.6265 220.45C102.703 220.355 105.098 219.832 106.81 218.881C108.523 217.898 109.379 216.551 109.379 214.839C109.379 214.173 109.173 213.555 108.761 212.984C108.38 212.413 107.603 212.112 106.43 212.08Z" fill="#E1504B"/>
<path d="M57.0643 0H0V69.4344H5.70908V5.70693H69.3811V0H57.0643Z" fill="#E1504B"/>
<path d="M204.32 337H261.411V267.592H255.702V331.24H192.083V336.947L204.32 337Z" fill="#E1504B"/>
<path d="M261.411 57.0958V0H192.083V5.70693H255.755V69.4344H261.411V57.0958Z" fill="#E1504B"/>
<path d="M0 279.904V337H69.3811V331.293H5.65621V267.592H0V279.904Z" fill="#E1504B"/>
<path d="M210.638 36.1704C207.694 36.1652 204.814 37.0331 202.364 38.6645C199.913 40.2958 198.002 42.6171 196.871 45.3347C195.741 48.0523 195.443 51.044 196.014 53.9312C196.585 56.8184 198 59.4713 200.08 61.5543C202.16 63.6373 204.812 65.0566 207.699 65.6327C210.586 66.2088 213.58 65.9158 216.3 64.7907C219.021 63.6656 221.346 61.7591 222.983 59.3123C224.619 56.8656 225.492 53.9886 225.492 51.0454C225.492 47.1049 223.928 43.3254 221.143 40.5365C218.358 37.7477 214.58 36.1774 210.638 36.1704V36.1704Z" fill="#E1504B"/>
</svg>
