<svg width="16" height="16" viewBox="0 0 16 16" fill="none" xmlns="http://www.w3.org/2000/svg">
<path fill-rule="evenodd" clip-rule="evenodd" d="M3.5 0.5H10.25L14 4.25V14C14 14.8291 13.3291 15.5 12.5 15.5H3.5C2.6709 15.5 2 14.8291 2 14V2C2 1.1709 2.6709 0.5 3.5 0.5ZM3.77539 10.2705H4.51074C5.2959 10.2705 5.84375 9.75488 5.84375 8.98731C5.84375 8.21387 5.31934 7.69824 4.55176 7.69824H2.99609V11.4277H3.77539V10.2705ZM6.56152 11.4277H8.0293C9.14551 11.4277 9.77832 10.748 9.77832 9.53516C9.77832 8.36621 9.13672 7.69531 8.0293 7.69531H6.56152V11.4277ZM11.2959 8.36621H12.957V7.69824H10.5166V11.4277H11.2959V9.97754H12.8135V9.33887H11.2959V8.36621ZM4.34448 8.33989H3.77612V9.63774H4.34155C4.7898 9.63774 5.05054 9.40923 5.05054 8.99321C5.05054 8.56548 4.79565 8.33989 4.34448 8.33989ZM7.90186 8.36324H7.33936V10.7597H7.90186C8.59033 10.7597 8.97998 10.3349 8.97998 9.54683C8.97998 8.7939 8.57861 8.36324 7.90186 8.36324Z" fill="white" fill-opacity="0.3"/>
</svg>
