<svg width="18" height="18" viewBox="0 0 18 18" fill="none" xmlns="http://www.w3.org/2000/svg">
<path fill-rule="evenodd" clip-rule="evenodd" d="M17.1064 0.892845C16.5319 0.317848 15.7672 0 14.9564 0C14.1456 0 13.381 0.317848 12.8064 0.889275L0.00292969 13.6929L0.160034 17.8107L4.4425 17.8535L17.1064 5.19283C18.2919 4.00713 18.2919 2.07854 17.1064 0.892845ZM3.60974 15.8215L2.11011 15.8071L2.05957 14.5036L11.8594 4.70359L13.292 6.13573L3.60974 15.8215ZM14.7323 4.69995L15.6749 3.75712C16.0671 3.36429 16.0671 2.72138 15.6749 2.32498C15.2926 1.94286 14.6246 1.94286 14.2423 2.32498L13.2997 3.26781L14.7323 4.69995Z" fill="#14473C"/>
</svg>
