<svg width="56" height="56" viewBox="0 0 56 56" fill="none" xmlns="http://www.w3.org/2000/svg">
<path opacity="0.1" d="M56 28C56 43.464 43.464 56 28 56C12.536 56 0 43.464 0 28C0 12.536 12.536 0 28 0C43.464 0 56 12.536 56 28Z" fill="#E1504B"/>
<path fill-rule="evenodd" clip-rule="evenodd" d="M28 17C27.4214 17 26.9524 17.469 26.9524 18.0476V26.9524H18.0476C17.469 26.9524 17 27.4214 17 28C17 28.5786 17.469 29.0476 18.0476 29.0476H26.9524V37.9524C26.9524 38.531 27.4214 39 28 39C28.5786 39 29.0476 38.531 29.0476 37.9524V29.0476H37.9524C38.531 29.0476 39 28.5786 39 28C39 27.4214 38.531 26.9524 37.9524 26.9524H29.0476V18.0476C29.0476 17.469 28.5786 17 28 17Z" fill="#E1504B"/>
</svg>
