<svg width="16" height="16" viewBox="0 0 16 16" fill="none" xmlns="http://www.w3.org/2000/svg">
<path d="M3.5 6.9821C3.77637 6.9821 4 6.75911 4 6.48404C4 6.20898 3.77637 5.98599 3.5 5.98599C3.22363 5.98599 3 6.20898 3 6.48404C3 6.75911 3.22363 6.9821 3.5 6.9821Z" fill="white" fill-opacity="0.3"/>
<path d="M6 6.4747C6 6.74461 5.78027 6.96342 5.50879 6.96342C5.23828 6.96342 5.01855 6.74461 5.01855 6.4747C5.01855 6.2048 5.23828 5.98599 5.50879 5.98599C5.78027 5.98599 6 6.2048 6 6.4747Z" fill="white" fill-opacity="0.3"/>
<path fill-rule="evenodd" clip-rule="evenodd" d="M12.0156 2.98833H14C15.1035 2.98833 16 3.85059 16 4.94942V10.9665C16 12.0654 15.1035 12.9588 14 12.9588H13.0156V14.9603C13.0156 15.5269 12.584 15.9875 12.0156 15.9875H4.0498C3.48145 15.9875 3.01855 15.5269 3.01855 14.9603V12.9588H2C0.896484 12.9588 0 12.0654 0 10.9665V4.94942C0 3.85059 0.896484 2.98833 2 2.98833H4.0127V1.02724C4.0127 0.460693 4.47461 0 5.04395 0H10.9844C11.5527 0 12.0156 0.460693 12.0156 1.02724V2.98833ZM10.0156 1.99222H6.0127V3.00078H10.0156V1.99222ZM10.9873 13.9331H5.01855V10.9665H10.9844L10.9873 13.9331ZM13.0186 10.9665H14V4.98055H2V10.9665H3.01855V9.99844C3.01855 9.4319 3.48145 8.97121 4.0498 8.97121H11.9873C12.5566 8.97121 13.0186 9.4319 13.0186 9.99844V10.9665Z" fill="white" fill-opacity="0.3"/>
</svg>
