<svg width="18" height="18" viewBox="0 0 18 18" fill="none" xmlns="http://www.w3.org/2000/svg">
<path fill-rule="evenodd" clip-rule="evenodd" d="M12.375 0V1.1579H15.75V3.37895H2.25V1.1579H5.625V0H12.375ZM2.25 15.4947C2.25 16.8772 3.375 18 4.76038 18H13.2363C14.6217 18 15.7467 16.8772 15.7467 15.4947V4.52632H2.25V15.4947ZM4.5 6.77193H13.5V14.9193C13.5 15.379 13.1243 15.7544 12.6628 15.7544H5.33716C4.87573 15.7544 4.5 15.379 4.5 14.9193V6.77193ZM10.125 7.85965H12.375V14.5965H10.125V7.85965ZM7.875 7.85965H5.625V14.5965H7.875V7.85965Z" fill="#E1504B"/>
</svg>
