<svg width="20" height="19" viewBox="0 0 20 19" fill="none" xmlns="http://www.w3.org/2000/svg">
<path fill-rule="evenodd" clip-rule="evenodd" d="M10.0182 0.464286C9.54293 0.464286 9.15765 0.849566 9.15765 1.32483V8.63945H1.84302C1.36775 8.63945 0.982474 9.02472 0.982474 9.49999C0.982474 9.97526 1.36775 10.3605 1.84302 10.3605H9.15765V17.6752C9.15765 18.1504 9.54293 18.5357 10.0182 18.5357C10.4935 18.5357 10.8787 18.1504 10.8787 17.6752V10.3605H18.1934C18.6686 10.3605 19.0539 9.97526 19.0539 9.49999C19.0539 9.02472 18.6686 8.63945 18.1934 8.63945H10.8787V1.32483C10.8787 0.849564 10.4935 0.464286 10.0182 0.464286Z" fill="#14473c"/>
</svg>
