<svg width="16" height="25" viewBox="0 0 16 25" fill="none" xmlns="http://www.w3.org/2000/svg">
<path fill-rule="evenodd" clip-rule="evenodd" d="M11 3.94043C11 5.59728 9.65685 6.94043 8 6.94043C6.34315 6.94043 5 5.59728 5 3.94043C5 2.28358 6.34315 0.94043 8 0.94043C9.65685 0.94043 11 2.28358 11 3.94043ZM14 12.4403C14 15.9403 2 15.9403 2 12.4403C2 6.25284 14 6.31534 14 12.4403Z" fill="white" fill-opacity="0.3"/>
<path fill-rule="evenodd" clip-rule="evenodd" d="M11 3.94043C11 5.59728 9.65685 6.94043 8 6.94043C6.34315 6.94043 5 5.59728 5 3.94043C5 2.28358 6.34315 0.94043 8 0.94043C9.65685 0.94043 11 2.28358 11 3.94043ZM14 12.4403C14 15.9403 2 15.9403 2 12.4403C2 6.25284 14 6.31534 14 12.4403Z" fill="white"/>
<circle cx="7.5" cy="23.5" r="1.5" fill="white"/>
</svg>
